<svg width="500" height="500" xmlns="http://www.w3.org/2000/svg"><rect height="500" width="500" fill="hsl(41, 40%, 65%)"/><g fill="hsl(105, 300%, 60%)"><g stroke="#000"><ellipse cx="246.6" cy="254.7" rx="153.5" ry="139.5" transform="rotate(1 247 255)"/><path d="m157 367-42 41-8-11-33 47-10-10-60 62 35-89 11 13 23-56 15 14 24-58 45 47z"/></g><path d="m113 308-1 4-1 5v6l1 1v4l1 1 1 1 1 1 1 1h1l1 1v1l1 1h1l1 2h1v1l2 1 1 1 2 1v1l2 1v2l2 1v1l1 1v1l1 1v1l1 1 1 1 1 1 1 1 1 1 1 1h1v1l1 1h1v1l1 1 2 1 1 1h2l1 1 1 1 1 1h1l1 1h7v-5l-1-1-1-1-1-1-1-1-1-1-1-1-2-2-1-1-1-1-2-1-1-1-1-1-1-2-1-1-1-2h-1v-1l-1-1-1-1-1-2-1-1-1-2-2-2-1-2-1-1-1-1-3-3-1-2-2-2-3-2-1-2-1-1-1-1-1-2-1-2v-1l-1-1-1-1v-1h-2v-1h-1"/></g><path fill="#ff7f00" stroke="#000" d="M362 300h32v17h-32v-17z" opacity="undefined"/><path fill="hsl(105, 300%, 60%)" stroke="#000" d="M371 296h-5l-1 1-1 1-1 2-1 1v7l-1 1v9l1 1v2h5v-2l1-2v-2l1-2v-10l1-2v-4"/><path fill="#fff" stroke="#000" d="M394 300h75v17h-75v-17z" opacity="undefined"/><path fill="red" stroke="#000" d="M468 300h3v17h-3v-17z" opacity="undefined"/><path fill="#999" d="M468 249h7v41h-7zM472 196h5v36h-5z"/><path fill="#fff" stroke="#000" d="M292 202h46l1 1h6l2-1h26l3 1h11l-1 1v2l-1 1v2l-1 1v2l-1 1v1h-1v1l-1 1-1 1-3 2h-1l-1 1-1 1v1h-1l-1 1-1 1v1h-1v1h-2l-2 1-1 1h-1v1l-1 1h-1v1l-1 1h-1l-1 1v1l-3 1-2 1h-1l-1 1-1 1h-1l-1 1-1 1h-1l-2 1h-3l-2 1h-3l-1 1h-5l-1 1h-4l-2 1h-11l-2-1h-1l-1-1h-2l-1-1-2-1-2-2-2-1-2-2-1-1-1-1-2-2-1-2-1-2v-1l-1-1h-1l-1-2-1-2-1-2-1-1v-1l-1-2-1-1v-1l-1-2-1-1v-1l-1-1-1-1v-2l-1-1v-1l-1-1h-1v-1l-1-1 1-1h1l1 1h14"/><path stroke="#000" d="M308 202h4l1 1h9l1-1h19l1 1h10l2-1h11l4-1h5l1 1h10l1 1h2l-1 2-1 1v4l-1 1v2l-1 2v1l-1 1v1l-1 2-2 2h-1l-1 1v1h-1v1l-1 1-1 1v1l-1 1h-1v1l-1 1-2 1-1 1h-1v2l-1 1-1 1-1 1v1l-1 1-2 2h-2l-1 1-1 1v1h-2v1l-1 1-2 1-2 1h-1l-1 1h-3l-1 1h-1l-2 1h-3l-1 1h-15l-1-1h-1l-1-1-1-1-1-1-1-2-1-1-1-1-2-1-1-1-1-2-1-3-2-2v-2l-1-1v-1l-1-1-1-2-1-3-1-2v-1l-1-2v-1l-1-2-1-1-1-2v-2l-1-2-1-1v-3l-1-1-1-2-1-1v-1l1-1h13"/><path fill="#ff5656" stroke="#000" d="M126 161h278v9H126z"/><path fill="#faa" stroke="#000" d="m125 160 1-53c0-30 54-53 120-52 66 0 120 25 120 54l-1 54-240-3z"/><path fill="#ff5656" stroke="#000" d="M171 200h119l98 2-98 1H171v-3z"/><path fill="hsl(41, 170%, 40%)" stroke="#000" d="M332 161c-4 0-6-4-6-7 0-4 3-8 6-10 4-3 9-4 14-1V82c3-1 2 3 2 5 1 5 4 9 7 13 4 5 8 10 10 16 1 8-1 15-4 22 0 2-4 5-2 1 3-6 5-14 3-21-2-8-8-14-14-15l-1 47c0 4-4 8-7 10-3 1-6 2-8 1z"/><path fill="#ff0" stroke="#000" d="m194 275 3-6 89 53-3 5z"/><path fill="#666" stroke="#000" d="M283 317h27v14h-27z"/><path fill="#666" d="M286 319h-4v8h2v-6l1-1v-1"/><ellipse cx="161" cy="235" fill="#ff0" stroke="#000" rx="57.7" ry="49"/><path fill="#ff0" d="m197 268 1 1h2v1h1v2l-1 1-1 1v1h-5l-1-1v-2l1-1 1-1h1v-1h1v-1"/><ellipse cx="161.5" cy="235.5" fill="hsl(41, 40%, 50%)" stroke="#000" rx="35.5" ry="31.5"/><path fill="hsl(41, 40%, 30%)" stroke="#000" d="M124 219c-16-20-54 37-22-25s0 17 29 14c30-3 33 61 23 36-10-24-13-6-30-25z" opacity="undefined"/><text x="336" y="206" fill="hsl(105, 300%, 65%)" text-anchor="middle" font-size="3">Leap</text><text x="396" y="313" fill="hsl(105, 10, 20%)" font-size="12">Life</text></svg>